<?xml version="1.0" standalone="no"?>
<!DOCTYPE svg PUBLIC "-//W3C//DTD SVG 1.1//EN"
        "http://www.w3.org/Graphics/SVG/1.1/DTD/svg11.dtd">

<svg width="613" height="405" view_box="0 0 613 405"
     xmlns="http://www.w3.org/2000/svg"
>\n\n
    <desc>Généré par Mocodo 2.3.7 le Thu, 27 Jan 2022 06:37:54</desc>

    <rect id="frame" x="0" y="0" width="613" height="405" fill="#f5f5f5" stroke="none" stroke-width="0"/>

    <!-- Association CONTIENT -->
    <line x1="186" y1="186" x2="314" y2="354" stroke="#bf812d" stroke-width="2"/>
    <text x="216.541357692" y="271" fill="#01665e" font-family="Verdana" font-size="12">0,N</text>
    <line x1="438" y1="354" x2="314" y2="354" stroke="#bf812d" stroke-width="2"/>
    <text x="369" y="371.0" fill="#01665e" font-family="Verdana" font-size="12">1,1</text>
    <g id="association-CONTIENT">
        <path d="M 339 329 a 14 14 90 0 1 14 14 V 354 h -78 V 343 a 14 14 90 0 1 14 -14" fill="#dfc27d" stroke="#dfc27d"
              stroke-width="0"/>
        <path d="M 353 354.0 v 11 a 14 14 90 0 1 -14 14 H 289 a 14 14 90 0 1 -14 -14 V 354.0 H 78" fill="#f6e8c3"
              stroke="#f6e8c3" stroke-width="0"/>
        <rect x="275" y="329" width="78" height="50" fill="none" rx="14" stroke="#bf812d" stroke-width="2"/>
        <line x1="275" y1="354" x2="353" y2="354" stroke="#bf812d" stroke-width="1"/>
        <text x="282" y="346.7" fill="#000000" font-family="Verdana" font-size="12">CONTIENT</text>
    </g>

    <!-- Association APPARTIENT -->
    <line x1="186" y1="186" x2="186" y2="354" stroke="#bf812d" stroke-width="2"/>
    <text x="159.0" y="271" fill="#01665e" font-family="Verdana" font-size="12">1,N</text>
    <line x1="55" y1="354" x2="186" y2="354" stroke="#bf812d" stroke-width="2"/>
    <text x="87" y="371.0" fill="#01665e" font-family="Verdana" font-size="12">1,N</text>
    <g id="association-APPARTIENT">
        <path d="M 218 329 a 14 14 90 0 1 14 14 V 354 h -92 V 343 a 14 14 90 0 1 14 -14" fill="#dfc27d" stroke="#dfc27d"
              stroke-width="0"/>
        <path d="M 232 354.0 v 11 a 14 14 90 0 1 -14 14 H 154 a 14 14 90 0 1 -14 -14 V 354.0 H 92" fill="#f6e8c3"
              stroke="#f6e8c3" stroke-width="0"/>
        <rect x="140" y="329" width="92" height="50" fill="none" rx="14" stroke="#bf812d" stroke-width="2"/>
        <line x1="140" y1="354" x2="232" y2="354" stroke="#bf812d" stroke-width="1"/>
        <text x="147" y="346.7" fill="#000000" font-family="Verdana" font-size="12">APPARTIENT</text>
    </g>

    <!-- Association DÉVELOPPE -->
    <line x1="186" y1="186" x2="55" y2="186" stroke="#bf812d" stroke-width="2"/>
    <text x="104" y="203.0" fill="#01665e" font-family="Verdana" font-size="12">1,1</text>
    <line x1="55" y1="51" x2="55" y2="186" stroke="#bf812d" stroke-width="2"/>
    <text x="60.0" y="110" fill="#01665e" font-family="Verdana" font-size="12">0,N</text>
    <g id="association-DÉVELOPPE">
        <path d="M 84 161 a 14 14 90 0 1 14 14 V 186 h -86 V 175 a 14 14 90 0 1 14 -14" fill="#dfc27d" stroke="#dfc27d"
              stroke-width="0"/>
        <path d="M 98 186.0 v 11 a 14 14 90 0 1 -14 14 H 26 a 14 14 90 0 1 -14 -14 V 186.0 H 86" fill="#f6e8c3"
              stroke="#f6e8c3" stroke-width="0"/>
        <rect x="12" y="161" width="86" height="50" fill="none" rx="14" stroke="#bf812d" stroke-width="2"/>
        <line x1="12" y1="186" x2="98" y2="186" stroke="#bf812d" stroke-width="1"/>
        <text x="19" y="178.7" fill="#000000" font-family="Verdana" font-size="12">DÉVELOPPE</text>
    </g>

    <!-- Association EST AMI(E) -->
    <path d="M438 186 C 395.333333333 123.666666667 395.333333333 78.6666666667 438 51" fill="none" stroke="#bf812d"
          stroke-width="2"/>
    <text x="412.0" y="110" fill="#01665e" font-family="Verdana" font-size="12">0,N</text>
    <path d="M438 186 C 480.666666667 123.666666667 480.666666667 78.6666666667 438 51" fill="none" stroke="#bf812d"
          stroke-width="2"/>
    <text x="442.0" y="110" fill="#01665e" font-family="Verdana" font-size="12">0,N</text>
    <g id="association-EST AMI(E)">
        <path d="M 466 26 a 14 14 90 0 1 14 14 V 51 h -84 V 40 a 14 14 90 0 1 14 -14" fill="#dfc27d" stroke="#dfc27d"
              stroke-width="0"/>
        <path d="M 480 51.0 v 11 a 14 14 90 0 1 -14 14 H 410 a 14 14 90 0 1 -14 -14 V 51.0 H 84" fill="#f6e8c3"
              stroke="#f6e8c3" stroke-width="0"/>
        <rect x="396" y="26" width="84" height="50" fill="none" rx="14" stroke="#bf812d" stroke-width="2"/>
        <line x1="396" y1="51" x2="480" y2="51" stroke="#bf812d" stroke-width="1"/>
        <text x="403" y="43.7" fill="#000000" font-family="Verdana" font-size="12">EST AMI(E)</text>
    </g>

    <!-- Association DEBLOQUE -->
    <line x1="438" y1="354" x2="563" y2="186" stroke="#bf812d" stroke-width="2"/>
    <text x="447.868990539" y="304" fill="#01665e" font-family="Verdana" font-size="12">0,N</text>
    <line x1="438" y1="186" x2="563" y2="186" stroke="#bf812d" stroke-width="2"/>
    <text x="495" y="203.0" fill="#01665e" font-family="Verdana" font-size="12">0,N</text>
    <g id="association-DEBLOQUE">
        <path d="M 590 161 a 14 14 90 0 1 14 14 V 186 h -82 V 175 a 14 14 90 0 1 14 -14" fill="#dfc27d" stroke="#dfc27d"
              stroke-width="0"/>
        <path d="M 604 186.0 v 11 a 14 14 90 0 1 -14 14 H 536 a 14 14 90 0 1 -14 -14 V 186.0 H 82" fill="#f6e8c3"
              stroke="#f6e8c3" stroke-width="0"/>
        <rect x="522" y="161" width="82" height="50" fill="none" rx="14" stroke="#bf812d" stroke-width="2"/>
        <line x1="522" y1="186" x2="604" y2="186" stroke="#bf812d" stroke-width="1"/>
        <text x="529" y="178.7" fill="#000000" font-family="Verdana" font-size="12">DEBLOQUE</text>
        <text x="529" y="203.8" fill="#000000" font-family="Verdana" font-size="12">date</text>
    </g>

    <!-- Association PARTAGER -->
    <path d="M438 186 C 388.666666667 219.333333333 347.333333333 219.333333333 314 186" fill="none" stroke="#bf812d"
          stroke-width="2"/>
    <text x="359" y="201.0" fill="#01665e" font-family="Verdana" font-size="12">0,N</text>
    <line x1="186" y1="186" x2="314" y2="186" stroke="#bf812d" stroke-width="2"/>
    <text x="247" y="203.0" fill="#01665e" font-family="Verdana" font-size="12">0,N</text>
    <path d="M438 186 C 388.666666667 152.666666667 347.333333333 152.666666667 314 186" fill="none" stroke="#bf812d"
          stroke-width="2"/>
    <text x="359" y="180.0" fill="#01665e" font-family="Verdana" font-size="12">0,N</text>
    <g id="association-PARTAGER">
        <path d="M 340 161 a 14 14 90 0 1 14 14 V 186 h -80 V 175 a 14 14 90 0 1 14 -14" fill="#dfc27d" stroke="#dfc27d"
              stroke-width="0"/>
        <path d="M 354 186.0 v 11 a 14 14 90 0 1 -14 14 H 288 a 14 14 90 0 1 -14 -14 V 186.0 H 80" fill="#f6e8c3"
              stroke="#f6e8c3" stroke-width="0"/>
        <rect x="274" y="161" width="80" height="50" fill="none" rx="14" stroke="#bf812d" stroke-width="2"/>
        <line x1="274" y1="186" x2="354" y2="186" stroke="#bf812d" stroke-width="1"/>
        <text x="281" y="178.7" fill="#000000" font-family="Verdana" font-size="12">PARTAGER</text>
    </g>

    <!-- Association EDITER -->
    <line x1="186" y1="186" x2="186" y2="51" stroke="#bf812d" stroke-width="2"/>
    <text x="160.0" y="110" fill="#01665e" font-family="Verdana" font-size="12">1,1</text>
    <line x1="55" y1="51" x2="186" y2="51" stroke="#bf812d" stroke-width="2"/>
    <text x="106" y="68.0" fill="#01665e" font-family="Verdana" font-size="12">0,N</text>
    <g id="association-EDITER">
        <path d="M 202 26 a 14 14 90 0 1 14 14 V 51 h -60 V 40 a 14 14 90 0 1 14 -14" fill="#dfc27d" stroke="#dfc27d"
              stroke-width="0"/>
        <path d="M 216 51.0 v 11 a 14 14 90 0 1 -14 14 H 170 a 14 14 90 0 1 -14 -14 V 51.0 H 60" fill="#f6e8c3"
              stroke="#f6e8c3" stroke-width="0"/>
        <rect x="156" y="26" width="60" height="50" fill="none" rx="14" stroke="#bf812d" stroke-width="2"/>
        <line x1="156" y1="51" x2="216" y2="51" stroke="#bf812d" stroke-width="1"/>
        <text x="163" y="43.7" fill="#000000" font-family="Verdana" font-size="12">EDITER</text>
    </g>

    <!-- Association ACHAT -->
    <line x1="186" y1="186" x2="314" y2="279" stroke="#bf812d" stroke-width="2"/>
    <text x="247" y="224.194299458" fill="#01665e" font-family="Verdana" font-size="12">0,N</text>
    <path d="M438 186 C 412.186666667 254.36 370.853333333 285.36 314 279" fill="none" stroke="#bf812d"
          stroke-width="2"/>
    <text x="359" y="259.6568" fill="#01665e" font-family="Verdana" font-size="12">0,N</text>
    <g id="association-ACHAT">
        <path d="M 328 254 a 14 14 90 0 1 14 14 V 279 h -56 V 268 a 14 14 90 0 1 14 -14" fill="#dfc27d" stroke="#dfc27d"
              stroke-width="0"/>
        <path d="M 342 279.0 v 11 a 14 14 90 0 1 -14 14 H 300 a 14 14 90 0 1 -14 -14 V 279.0 H 56" fill="#f6e8c3"
              stroke="#f6e8c3" stroke-width="0"/>
        <rect x="286" y="254" width="56" height="50" fill="none" rx="14" stroke="#bf812d" stroke-width="2"/>
        <line x1="286" y1="279" x2="342" y2="279" stroke="#bf812d" stroke-width="1"/>
        <text x="293" y="271.7" fill="#000000" font-family="Verdana" font-size="12">ACHAT</text>
    </g>

    <!-- Association AVIS -->
    <path d="M438 186 C 418.478279416 104.907804203 377.144946083 59.9078042032 314 51" fill="none" stroke="#bf812d"
          stroke-width="2"/>
    <text x="373.646676171" y="110" fill="#01665e" font-family="Verdana" font-size="12">0,N</text>
    <line x1="186" y1="186" x2="314" y2="51" stroke="#bf812d" stroke-width="2"/>
    <text x="247" y="137.132562919" fill="#01665e" font-family="Verdana" font-size="12">0,N</text>
    <g id="association-AVIS">
        <path d="M 347 17 a 14 14 90 0 1 14 14 V 42 h -94 V 31 a 14 14 90 0 1 14 -14" fill="#dfc27d" stroke="#dfc27d"
              stroke-width="0"/>
        <path d="M 361 42.0 v 29 a 14 14 90 0 1 -14 14 H 281 a 14 14 90 0 1 -14 -14 V 42.0 H 94" fill="#f6e8c3"
              stroke="#f6e8c3" stroke-width="0"/>
        <rect x="267" y="17" width="94" height="68" fill="none" rx="14" stroke="#bf812d" stroke-width="2"/>
        <line x1="267" y1="42" x2="361" y2="42" stroke="#bf812d" stroke-width="1"/>
        <text x="298" y="34.7" fill="#000000" font-family="Verdana" font-size="12">AVIS</text>
        <text x="274" y="59.8" fill="#000000" font-family="Verdana" font-size="12">note</text>
        <text x="274" y="76.8" fill="#000000" font-family="Verdana" font-size="12">commentaire</text>
    </g>

    <!-- Entity JEUX -->
    <g id="entity-JEUX">
        <g id="frame-JEUX">
            <rect x="130" y="118" width="112" height="25" fill="#80cdc1" stroke="#80cdc1" stroke-width="0"/>
            <rect x="130" y="143.0" width="112" height="111" fill="#c7eae5" stroke="#c7eae5" stroke-width="0"/>
            <rect x="130" y="118" width="112" height="136" fill="none" stroke="#35978f" stroke-width="2"/>
            <line x1="130" y1="143" x2="242" y2="143" stroke="#35978f" stroke-width="1"/>
        </g>
        <text x="170" y="135.7" fill="#000000" font-family="Verdana" font-size="12">JEUX</text>
        <text x="135" y="160.7" fill="#000000" font-family="Verdana" font-size="12">id_jeux</text>
        <line x1="135" y1="163" x2="180" y2="163" stroke="#000000" stroke-width="1"/>
        <text x="135" y="177.7" fill="#000000" font-family="Verdana" font-size="12">titre</text>
        <text x="135" y="194.8" fill="#000000" font-family="Verdana" font-size="12">date_sortie</text>
        <text x="135" y="211.8" fill="#000000" font-family="Verdana" font-size="12">prix</text>
        <text x="135" y="228.8" fill="#000000" font-family="Verdana" font-size="12">age_requis</text>
        <text x="135" y="245.8" fill="#000000" font-family="Verdana" font-size="12">description_jeux</text>
    </g>

    <!-- Entity GENRE -->
    <g id="entity-GENRE">
        <g id="frame-GENRE">
            <rect x="28" y="329" width="54" height="25" fill="#80cdc1" stroke="#80cdc1" stroke-width="0"/>
            <rect x="28" y="354.0" width="54" height="25" fill="#c7eae5" stroke="#c7eae5" stroke-width="0"/>
            <rect x="28" y="329" width="54" height="50" fill="none" stroke="#35978f" stroke-width="2"/>
            <line x1="28" y1="354" x2="82" y2="354" stroke="#35978f" stroke-width="1"/>
        </g>
        <text x="33" y="346.7" fill="#000000" font-family="Verdana" font-size="12">GENRE</text>
        <text x="33" y="371.8" fill="#000000" font-family="Verdana" font-size="12">type</text>
        <line x1="33" y1="374" x2="61" y2="374" stroke="#000000" stroke-width="1"/>
    </g>

    <!-- Entity SUCCES -->
    <g id="entity-SUCCES">
        <g id="frame-SUCCES">
            <rect x="395" y="312" width="86" height="25" fill="#80cdc1" stroke="#80cdc1" stroke-width="0"/>
            <rect x="395" y="337.0" width="86" height="59" fill="#c7eae5" stroke="#c7eae5" stroke-width="0"/>
            <rect x="395" y="312" width="86" height="84" fill="none" stroke="#35978f" stroke-width="2"/>
            <line x1="395" y1="337" x2="481" y2="337" stroke="#35978f" stroke-width="1"/>
        </g>
        <text x="412" y="329.7" fill="#000000" font-family="Verdana" font-size="12">SUCCES</text>
        <text x="400" y="354.8" fill="#000000" font-family="Verdana" font-size="12">num_succes</text>
        <line x1="400" y1="357" x2="475" y2="357" stroke="#000000" stroke-width="1"/>
        <text x="400" y="371.8" fill="#000000" font-family="Verdana" font-size="12">intitule</text>
        <text x="400" y="388.8" fill="#000000" font-family="Verdana" font-size="12">conditions</text>
    </g>

    <!-- Entity JOUEUR -->
    <g id="entity-JOUEUR">
        <g id="frame-JOUEUR">
            <rect x="386" y="118" width="104" height="25" fill="#80cdc1" stroke="#80cdc1" stroke-width="0"/>
            <rect x="386" y="143.0" width="104" height="111" fill="#c7eae5" stroke="#c7eae5" stroke-width="0"/>
            <rect x="386" y="118" width="104" height="136" fill="none" stroke="#35978f" stroke-width="2"/>
            <line x1="386" y1="143" x2="490" y2="143" stroke="#35978f" stroke-width="1"/>
        </g>
        <text x="413" y="135.7" fill="#000000" font-family="Verdana" font-size="12">JOUEUR</text>
        <text x="391" y="160.7" fill="#000000" font-family="Verdana" font-size="12">pseudo</text>
        <line x1="391" y1="163" x2="435" y2="163" stroke="#000000" stroke-width="1"/>
        <text x="391" y="177.7" fill="#000000" font-family="Verdana" font-size="12">passwd</text>
        <text x="391" y="194.8" fill="#000000" font-family="Verdana" font-size="12">nom</text>
        <text x="391" y="211.8" fill="#000000" font-family="Verdana" font-size="12">adress_mail</text>
        <text x="391" y="228.8" fill="#000000" font-family="Verdana" font-size="12">date_naissance</text>
        <text x="391" y="245.8" fill="#000000" font-family="Verdana" font-size="12">monnaie</text>
    </g>

    <!-- Entity ENTREPRISE -->
    <g id="entity-ENTREPRISE">
        <g id="frame-ENTREPRISE">
            <rect x="9" y="9" width="92" height="25" fill="#80cdc1" stroke="#80cdc1" stroke-width="0"/>
            <rect x="9" y="34.0" width="92" height="59" fill="#c7eae5" stroke="#c7eae5" stroke-width="0"/>
            <rect x="9" y="9" width="92" height="84" fill="none" stroke="#35978f" stroke-width="2"/>
            <line x1="9" y1="34" x2="101" y2="34" stroke="#35978f" stroke-width="1"/>
        </g>
        <text x="16" y="26.7" fill="#000000" font-family="Verdana" font-size="12">ENTREPRISE</text>
        <text x="14" y="51.8" fill="#000000" font-family="Verdana" font-size="12">id_entreprise</text>
        <line x1="14" y1="54" x2="95" y2="54" stroke="#000000" stroke-width="1"/>
        <text x="14" y="68.8" fill="#000000" font-family="Verdana" font-size="12">nom</text>
        <text x="14" y="85.8" fill="#000000" font-family="Verdana" font-size="12">pays</text>
    </g>
</svg>